<?xml version="1.0" encoding="UTF-8"?>
<svg xmlns="http://www.w3.org/2000/svg" id="Layer_1" data-name="Layer 1" viewBox="0 0 24 24" width="512" height="512"><path d="M22.17,1.82l-1.05-.91c-1.21-1.21-3.17-1.21-4.38,0-.03,.03-1.88,2.44-1.88,2.44-1.14,1.2-1.14,3.09,0,4.28l1.16,1.46c-1.46,3.31-3.73,5.59-6.93,6.95l-1.46-1.17c-1.19-1.15-3.09-1.15-4.28,0,0,0-2.41,1.85-2.44,1.88-1.21,1.21-1.21,3.17-.05,4.33l1,1.15c1.15,1.15,2.7,1.78,4.38,1.78,7.64,0,17.76-10.13,17.76-17.76,0-1.67-.63-3.23-1.83-4.42ZM6.24,22c-1.14,0-2.19-.42-2.91-1.15l-1-1.15c-.41-.41-.43-1.08-.04-1.51,0,0,2.39-1.84,2.42-1.87,.41-.41,1.13-.41,1.55,0,.03,.03,2.04,1.64,2.04,1.64,.28,.22,.65,.28,.98,.15,4.14-1.58,7.11-4.54,8.82-8.81,.13-.33,.08-.71-.15-1,0,0-1.61-2.02-1.63-2.04-.43-.43-.43-1.12,0-1.55,.03-.03,1.87-2.42,1.87-2.42,.43-.39,1.1-.38,1.56,.08l1.05,.91c.77,.77,1.2,1.82,1.2,2.96,0,6.96-9.77,15.76-15.76,15.76Z" fill="#000" /></svg>
